<svg xmlns="http://www.w3.org/2000/svg" width="16" height="16" fill="none"><path fill="#1F2630" d="M0 0h16v16H0z"/><path fill="#fff" d="M8 12V4h2.1c.72 0 1.32.12 1.82.36s.9.56 1.2.96c.3.4.53.84.67 1.33.14.5.21 1 .21 1.5 0 .59-.1 1.12-.29 1.6A3.44 3.44 0 0 1 10.45 12H8Zm1.39-1.52h.82c.36 0 .67-.05.96-.15.29-.11.54-.27.74-.47.21-.2.37-.46.48-.76.11-.31.17-.67.17-1.07a3 3 0 0 0-.23-1.27c-.14-.33-.33-.59-.55-.77-.22-.18-.44-.3-.67-.37a2 2 0 0 0-.59-.1H9.4v4.96ZM4.15 4c.77 0 1.37.17 1.82.51.46.33.68.83.68 1.5 0 .5-.11.9-.34 1.24-.22.33-.52.57-.9.74-.38.16-.82.24-1.3.24l-.24-.85c.6 0 1.14.1 1.6.27.48.18.85.44 1.12.78.27.34.41.74.41 1.21 0 .44-.07.8-.22 1.11-.14.3-.33.54-.58.73-.24.18-.5.31-.81.4-.3.08-.62.12-.95.12H2V4h2.15Zm.17 3.27c.29 0 .5-.1.63-.28.14-.19.2-.4.2-.64 0-.28-.08-.48-.25-.62-.17-.14-.4-.2-.68-.2h-.78v1.74h.88Zm.05 3.26c.21 0 .4-.03.58-.08a.9.9 0 0 0 .4-.3c.1-.14.16-.3.16-.5 0-.24-.06-.41-.18-.53a.91.91 0 0 0-.47-.25 2.22 2.22 0 0 0-.59-.08h-.83v1.74h.93Z"/></svg>